<?xml version="1.0" standalone="no"?>
<!DOCTYPE svg PUBLIC "-//W3C//DTD SVG 20010904//EN"
 "http://www.w3.org/TR/2001/REC-SVG-20010904/DTD/svg10.dtd">
<svg version="1.0" xmlns="http://www.w3.org/2000/svg"
 width="700.000000pt" height="700.000000pt" viewBox="0 0 700.000000 700.000000"
 preserveAspectRatio="xMidYMid meet">
<metadata>
Created by potrace 1.14, written by Peter Selinger 2001-2017
</metadata>
<g transform="translate(0.000000,700.000000) scale(0.100000,-0.100000)"
fill="#000000" stroke="none">
<path d="M1545 6219 c-343 -33 -651 -257 -792 -575 -36 -81 -49 -125 -73 -244
-13 -69 -10 -257 6 -335 27 -131 85 -270 157 -375 46 -66 183 -202 252 -248
118 -79 275 -141 400 -159 136 -20 375 2 474 44 171 72 259 129 366 237 97 98
156 186 213 316 73 168 91 422 42 610 -65 251 -235 475 -455 602 -183 104
-382 148 -590 127z m149 -880 c25 -12 56 -63 56 -94 0 -37 -47 -94 -79 -96 -9
-1 -23 -2 -31 -3 -25 -3 -71 27 -86 56 -47 90 45 180 140 137z"/>
<path d="M4887 6165 c-26 -7 -50 -13 -52 -14 -6 -1 -12 -3 -22 -5 -18 -4 -81
-41 -113 -68 -57 -45 -110 -122 -136 -195 -20 -57 -23 -83 -20 -163 5 -146 33
-197 207 -374 l137 -141 -129 -130 c-144 -145 -166 -175 -198 -258 -54 -147
-14 -331 97 -445 137 -141 340 -174 516 -85 44 22 292 249 320 292 6 10 45
-23 150 -127 179 -177 246 -214 395 -213 162 0 317 95 385 236 38 77 49 137
43 231 -8 134 -44 197 -206 359 -72 72 -131 134 -131 139 0 5 61 71 135 147
109 111 141 150 164 201 101 221 13 471 -201 575 -77 37 -115 46 -194 45 -145
-2 -223 -44 -394 -216 l-132 -132 -133 132 c-73 72 -152 143 -176 157 -96 55
-218 76 -312 52z"/>
<path d="M2835 4447 c-257 -85 -373 -373 -249 -618 21 -42 126 -159 290 -322
4 -4 -51 -67 -123 -140 -145 -147 -163 -170 -192 -248 -61 -159 -23 -335 99
-458 131 -132 326 -166 495 -87 56 27 136 97 271 235 l72 75 132 -130 c146
-143 190 -177 264 -200 203 -65 430 26 523 210 55 109 65 238 26 347 -30 82
-58 119 -199 261 l-127 127 134 136 c144 146 173 186 200 283 18 61 20 182 4
227 -23 67 -72 149 -116 193 -132 134 -332 165 -509 79 -27 -13 -101 -77 -186
-160 l-142 -138 -135 133 c-146 145 -209 187 -309 208 -76 15 -151 11 -223
-13z"/>
<path d="M5320 2689 c-161 -29 -267 -70 -388 -148 -220 -143 -376 -377 -426
-638 -60 -318 49 -659 283 -882 133 -127 312 -221 475 -252 28 -5 62 -11 76
-14 33 -7 206 -7 245 0 17 3 46 7 65 11 19 3 71 16 114 30 521 166 804 740
619 1257 -109 306 -357 530 -684 618 -82 22 -301 33 -379 18z m190 -874 c92
-48 67 -178 -37 -192 -32 -4 -45 0 -71 22 -60 50 -51 133 18 167 43 22 53 22
90 3z"/>
<path d="M988 2644 c-213 -40 -360 -220 -353 -435 5 -158 29 -203 206 -384
l138 -141 -123 -124 c-187 -188 -226 -258 -227 -410 0 -122 39 -217 126 -305
141 -144 357 -171 534 -68 23 14 103 84 176 157 l133 131 122 -122 c141 -143
183 -175 265 -204 327 -115 652 188 563 526 -22 85 -61 140 -194 276 -74 74
-134 138 -134 141 0 3 56 61 124 130 68 69 136 145 152 169 92 146 88 338 -10
478 -50 73 -101 115 -186 154 -54 25 -80 30 -155 33 -162 6 -241 -36 -429
-225 l-119 -120 -123 124 c-69 68 -143 137 -167 153 -87 61 -210 86 -319 66z"/>
</g>
</svg>
